<?xml version="1.0" encoding="UTF-8" standalone="no"?>
<!DOCTYPE score-partwise PUBLIC
    "-//Recordare//DTD MusicXML 3.1 Partwise//EN"
    "http://www.musicxml.org/dtds/partwise.dtd">
<score-partwise version="3.1">
<work>
<work-title>Faded</work-title>
</work>
<part-list>
<score-part id="P1">
<part-name>Faded</part-name>
</score-part>
</part-list>
<part id="P1">
<measure number="1">
<attributes>
<divisions>2</divisions>
<key>
<fifths>0</fifths>
</key>
<time>
<beats>4</beats>
<beat-type>4</beat-type>
</time>
<staves>2</staves>
<clef number="1">
<line>2</line>
<sign>G</sign>
</clef>
<clef number="2">
<line>4</line>
<sign>F</sign>
</clef>
</attributes>
<note>
<pitch>
<octave>5</octave>
<step>C</step>
</pitch>
<duration>2</duration>
<type>quarter</type>
<staff>1</staff>
</note>
<note>
<pitch>
<octave>5</octave>
<step>C</step>
</pitch>
<duration>2</duration>
<type>quarter</type>
<staff>1</staff>
</note>
<note>
<pitch>
<octave>5</octave>
<step>C</step>
</pitch>
<duration>2</duration>
<type>quarter</type>
<staff>1</staff>
</note>
<note>
<pitch>
<octave>5</octave>
<step>E</step>
</pitch>
<duration>2</duration>
<type>quarter</type>
<staff>1</staff>
</note>
<backup>
<duration>8</duration>
</backup>
<note>
<pitch>
<octave>4</octave>
<step>E</step>
</pitch>
<duration>8</duration>
<type>whole</type>
<staff>2</staff>
</note>
<note>
<chord></chord>
<pitch>
<octave>4</octave>
<step>C</step>
</pitch>
<duration>8</duration>
<type>whole</type>
<staff>2</staff>
</note>
<note>
<chord></chord>
<pitch>
<octave>3</octave>
<step>A</step>
</pitch>
<duration>8</duration>
<type>whole</type>
<staff>2</staff>
</note>
</measure>
<measure number="2">
<note>
<pitch>
<octave>5</octave>
<step>A</step>
</pitch>
<duration>2</duration>
<type>quarter</type>
<staff>1</staff>
</note>
<note>
<pitch>
<octave>5</octave>
<step>A</step>
</pitch>
<duration>2</duration>
<type>quarter</type>
<staff>1</staff>
</note>
<note>
<pitch>
<octave>5</octave>
<step>A</step>
</pitch>
<duration>2</duration>
<type>quarter</type>
<staff>1</staff>
</note>
<note>
<pitch>
<octave>5</octave>
<step>G</step>
</pitch>
<duration>2</duration>
<type>quarter</type>
<staff>1</staff>
</note>
<backup>
<duration>8</duration>
</backup>
<note>
<pitch>
<octave>4</octave>
<step>C</step>
</pitch>
<duration>8</duration>
<type>whole</type>
<staff>2</staff>
</note>
<note>
<chord></chord>
<pitch>
<octave>3</octave>
<step>A</step>
</pitch>
<duration>8</duration>
<type>whole</type>
<staff>2</staff>
</note>
<note>
<chord></chord>
<pitch>
<octave>3</octave>
<step>F</step>
</pitch>
<duration>8</duration>
<type>whole</type>
<staff>2</staff>
</note>
</measure>
<measure number="3">
<note>
<pitch>
<octave>5</octave>
<step>E</step>
</pitch>
<duration>2</duration>
<type>quarter</type>
<staff>1</staff>
</note>
<note>
<pitch>
<octave>5</octave>
<step>E</step>
</pitch>
<duration>2</duration>
<type>quarter</type>
<staff>1</staff>
</note>
<note>
<pitch>
<octave>5</octave>
<step>E</step>
</pitch>
<duration>2</duration>
<type>quarter</type>
<staff>1</staff>
</note>
<note>
<pitch>
<octave>5</octave>
<step>E</step>
</pitch>
<duration>2</duration>
<type>quarter</type>
<staff>1</staff>
</note>
<backup>
<duration>8</duration>
</backup>
<note>
<pitch>
<octave>3</octave>
<step>G</step>
</pitch>
<duration>8</duration>
<type>whole</type>
<staff>2</staff>
</note>
<note>
<chord></chord>
<pitch>
<octave>3</octave>
<step>E</step>
</pitch>
<duration>8</duration>
<type>whole</type>
<staff>2</staff>
</note>
<note>
<chord></chord>
<pitch>
<octave>3</octave>
<step>C</step>
</pitch>
<duration>8</duration>
<type>whole</type>
<staff>2</staff>
</note>
</measure>
<measure number="4">
<note>
<pitch>
<octave>4</octave>
<step>B</step>
</pitch>
<duration>2</duration>
<type>quarter</type>
<staff>1</staff>
</note>
<note>
<pitch>
<octave>4</octave>
<step>B</step>
</pitch>
<duration>2</duration>
<type>quarter</type>
<staff>1</staff>
</note>
<note>
<pitch>
<octave>4</octave>
<step>B</step>
</pitch>
<duration>2</duration>
<type>quarter</type>
<staff>1</staff>
</note>
<note>
<pitch>
<octave>4</octave>
<step>A</step>
</pitch>
<duration>2</duration>
<type>quarter</type>
<staff>1</staff>
</note>
<backup>
<duration>8</duration>
</backup>
<note>
<pitch>
<octave>4</octave>
<step>D</step>
</pitch>
<duration>8</duration>
<type>whole</type>
<staff>2</staff>
</note>
<note>
<chord></chord>
<pitch>
<octave>3</octave>
<step>B</step>
</pitch>
<duration>8</duration>
<type>whole</type>
<staff>2</staff>
</note>
<note>
<chord></chord>
<pitch>
<octave>3</octave>
<step>G</step>
</pitch>
<duration>8</duration>
<type>whole</type>
<staff>2</staff>
</note>
</measure>
<measure number="5">
<note>
<rest></rest>
<duration>1</duration>
<type>eighth</type>
<staff>1</staff>
</note>
<note>
<pitch>
<octave>5</octave>
<step>C</step>
</pitch>
<duration>1</duration>
<type>eighth</type>
<staff>1</staff>
</note>
<note>
<pitch>
<octave>5</octave>
<step>C</step>
</pitch>
<duration>1</duration>
<type>eighth</type>
<staff>1</staff>
</note>
<note>
<pitch>
<octave>4</octave>
<step>A</step>
</pitch>
<duration>1</duration>
<type>eighth</type>
<staff>1</staff>
</note>
<note>
<pitch>
<octave>5</octave>
<step>C</step>
</pitch>
<duration>1</duration>
<type>eighth</type>
<staff>1</staff>
</note>
<note>
<pitch>
<octave>4</octave>
<step>A</step>
</pitch>
<duration>1</duration>
<type>eighth</type>
<staff>1</staff>
</note>
<note>
<pitch>
<octave>5</octave>
<step>C</step>
</pitch>
<duration>1</duration>
<type>eighth</type>
<staff>1</staff>
</note>
<note>
<pitch>
<octave>5</octave>
<step>D</step>
</pitch>
<duration>1</duration>
<type>eighth</type>
<staff>1</staff>
</note>
<backup>
<duration>8</duration>
</backup>
<note>
<pitch>
<octave>4</octave>
<step>E</step>
</pitch>
<duration>8</duration>
<type>whole</type>
<staff>2</staff>
</note>
<note>
<chord></chord>
<pitch>
<octave>4</octave>
<step>C</step>
</pitch>
<duration>8</duration>
<type>whole</type>
<staff>2</staff>
</note>
<note>
<chord></chord>
<pitch>
<octave>3</octave>
<step>A</step>
</pitch>
<duration>8</duration>
<type>whole</type>
<staff>2</staff>
</note>
</measure>
<measure number="6">
<note>
<pitch>
<octave>5</octave>
<step>E</step>
</pitch>
<duration>2</duration>
<type>quarter</type>
<staff>1</staff>
</note>
<note>
<pitch>
<octave>5</octave>
<step>C</step>
</pitch>
<duration>1</duration>
<type>eighth</type>
<staff>1</staff>
</note>
<note>
<pitch>
<octave>5</octave>
<step>C</step>
</pitch>
<duration>1</duration>
<type>eighth</type>
<staff>1</staff>
</note>
<note>
<pitch>
<octave>4</octave>
<step>G</step>
</pitch>
<duration>2</duration>
<type>quarter</type>
<staff>1</staff>
</note>
<note>
<pitch>
<octave>5</octave>
<step>E</step>
</pitch>
<duration>2</duration>
<type>quarter</type>
<staff>1</staff>
</note>
<backup>
<duration>8</duration>
</backup>
<note>
<pitch>
<octave>4</octave>
<step>C</step>
</pitch>
<duration>8</duration>
<type>whole</type>
<staff>2</staff>
</note>
<note>
<chord></chord>
<pitch>
<octave>3</octave>
<step>A</step>
</pitch>
<duration>8</duration>
<type>whole</type>
<staff>2</staff>
</note>
<note>
<chord></chord>
<pitch>
<octave>3</octave>
<step>F</step>
</pitch>
<duration>8</duration>
<type>whole</type>
<staff>2</staff>
</note>
</measure>
<measure number="7">
<note>
<rest></rest>
<duration>5</duration>
<type>eighth</type>
<staff>1</staff>
</note>
<note>
<pitch>
<octave>5</octave>
<step>C</step>
</pitch>
<duration>1</duration>
<type>eighth</type>
<staff>1</staff>
</note>
<note>
<pitch>
<octave>5</octave>
<step>C</step>
</pitch>
<duration>1</duration>
<type>eighth</type>
<staff>1</staff>
</note>
<note>
<pitch>
<octave>5</octave>
<step>C</step>
</pitch>
<duration>1</duration>
<type>eighth</type>
<staff>1</staff>
</note>
<backup>
<duration>8</duration>
</backup>
<note>
<pitch>
<octave>3</octave>
<step>G</step>
</pitch>
<duration>8</duration>
<type>whole</type>
<staff>2</staff>
</note>
<note>
<chord></chord>
<pitch>
<octave>3</octave>
<step>E</step>
</pitch>
<duration>8</duration>
<type>whole</type>
<staff>2</staff>
</note>
<note>
<chord></chord>
<pitch>
<octave>3</octave>
<step>C</step>
</pitch>
<duration>8</duration>
<type>whole</type>
<staff>2</staff>
</note>
</measure>
<measure number="8">
<note>
<pitch>
<octave>4</octave>
<step>B</step>
</pitch>
<duration>1</duration>
<type>eighth</type>
<staff>1</staff>
</note>
<note>
<pitch>
<octave>4</octave>
<step>A</step>
</pitch>
<duration>1</duration>
<type>eighth</type>
<staff>1</staff>
</note>
<note>
<rest></rest>
<duration>1</duration>
<type>eighth</type>
<staff>1</staff>
</note>
<note>
<pitch>
<octave>4</octave>
<step>B</step>
</pitch>
<duration>1</duration>
<type>eighth</type>
<staff>1</staff>
</note>
<note>
<pitch>
<octave>4</octave>
<step>B</step>
</pitch>
<duration>1</duration>
<type>eighth</type>
<staff>1</staff>
</note>
<note>
<pitch>
<octave>4</octave>
<step>A</step>
</pitch>
<duration>1</duration>
<type>eighth</type>
<staff>1</staff>
</note>
<note>
<pitch>
<octave>5</octave>
<step>C</step>
</pitch>
<duration>2</duration>
<type>quarter</type>
<staff>1</staff>
</note>
<backup>
<duration>8</duration>
</backup>
<note>
<pitch>
<octave>4</octave>
<step>D</step>
</pitch>
<duration>8</duration>
<type>whole</type>
<staff>2</staff>
</note>
<note>
<chord></chord>
<pitch>
<octave>3</octave>
<step>B</step>
</pitch>
<duration>8</duration>
<type>whole</type>
<staff>2</staff>
</note>
<note>
<chord></chord>
<pitch>
<octave>3</octave>
<step>G</step>
</pitch>
<duration>8</duration>
<type>whole</type>
<staff>2</staff>
</note>
</measure>
<measure number="9">
<note>
<rest></rest>
<duration>1</duration>
<type>eighth</type>
<staff>1</staff>
</note>
<note>
<pitch>
<octave>5</octave>
<step>C</step>
</pitch>
<duration>1</duration>
<type>eighth</type>
<staff>1</staff>
</note>
<note>
<pitch>
<octave>5</octave>
<step>C</step>
</pitch>
<duration>1</duration>
<type>eighth</type>
<staff>1</staff>
</note>
<note>
<pitch>
<octave>4</octave>
<step>A</step>
</pitch>
<duration>1</duration>
<type>eighth</type>
<staff>1</staff>
</note>
<note>
<pitch>
<octave>5</octave>
<step>C</step>
</pitch>
<duration>1</duration>
<type>eighth</type>
<staff>1</staff>
</note>
<note>
<pitch>
<octave>4</octave>
<step>A</step>
</pitch>
<duration>1</duration>
<type>eighth</type>
<staff>1</staff>
</note>
<note>
<pitch>
<octave>5</octave>
<step>C</step>
</pitch>
<duration>1</duration>
<type>eighth</type>
<staff>1</staff>
</note>
<note>
<pitch>
<octave>5</octave>
<step>D</step>
</pitch>
<duration>1</duration>
<type>eighth</type>
<staff>1</staff>
</note>
<backup>
<duration>8</duration>
</backup>
<note>
<pitch>
<octave>4</octave>
<step>E</step>
</pitch>
<duration>8</duration>
<type>whole</type>
<staff>2</staff>
</note>
<note>
<chord></chord>
<pitch>
<octave>4</octave>
<step>C</step>
</pitch>
<duration>8</duration>
<type>whole</type>
<staff>2</staff>
</note>
<note>
<chord></chord>
<pitch>
<octave>3</octave>
<step>A</step>
</pitch>
<duration>8</duration>
<type>whole</type>
<staff>2</staff>
</note>
</measure>
<measure number="10">
<note>
<pitch>
<octave>5</octave>
<step>E</step>
</pitch>
<duration>2</duration>
<type>quarter</type>
<staff>1</staff>
</note>
<note>
<pitch>
<octave>5</octave>
<step>C</step>
</pitch>
<duration>1</duration>
<type>eighth</type>
<staff>1</staff>
</note>
<note>
<pitch>
<octave>5</octave>
<step>C</step>
</pitch>
<duration>1</duration>
<type>eighth</type>
<staff>1</staff>
</note>
<note>
<pitch>
<octave>5</octave>
<step>G</step>
</pitch>
<duration>2</duration>
<type>quarter</type>
<staff>1</staff>
</note>
<note>
<pitch>
<octave>5</octave>
<step>E</step>
</pitch>
<duration>2</duration>
<type>quarter</type>
<staff>1</staff>
</note>
<backup>
<duration>8</duration>
</backup>
<note>
<pitch>
<octave>4</octave>
<step>C</step>
</pitch>
<duration>8</duration>
<type>whole</type>
<staff>2</staff>
</note>
<note>
<chord></chord>
<pitch>
<octave>3</octave>
<step>A</step>
</pitch>
<duration>8</duration>
<type>whole</type>
<staff>2</staff>
</note>
<note>
<chord></chord>
<pitch>
<octave>3</octave>
<step>F</step>
</pitch>
<duration>8</duration>
<type>whole</type>
<staff>2</staff>
</note>
</measure>
<measure number="11">
<note>
<rest></rest>
<duration>5</duration>
<type>eighth</type>
<staff>1</staff>
</note>
<note>
<pitch>
<octave>5</octave>
<step>C</step>
</pitch>
<duration>1</duration>
<type>eighth</type>
<staff>1</staff>
</note>
<note>
<pitch>
<octave>5</octave>
<step>C</step>
</pitch>
<duration>1</duration>
<type>eighth</type>
<staff>1</staff>
</note>
<note>
<pitch>
<octave>5</octave>
<step>D</step>
</pitch>
<duration>1</duration>
<type>eighth</type>
<staff>1</staff>
</note>
<backup>
<duration>8</duration>
</backup>
<note>
<pitch>
<octave>3</octave>
<step>G</step>
</pitch>
<duration>8</duration>
<type>whole</type>
<staff>2</staff>
</note>
<note>
<chord></chord>
<pitch>
<octave>3</octave>
<step>E</step>
</pitch>
<duration>8</duration>
<type>whole</type>
<staff>2</staff>
</note>
<note>
<chord></chord>
<pitch>
<octave>3</octave>
<step>C</step>
</pitch>
<duration>8</duration>
<type>whole</type>
<staff>2</staff>
</note>
</measure>
<measure number="12">
<note>
<rest></rest>
<duration>6</duration>
<type>quarter</type>
<staff>1</staff>
</note>
<note>
<pitch>
<octave>5</octave>
<step>E</step>
</pitch>
<duration>2</duration>
<type>quarter</type>
<staff>1</staff>
</note>
<backup>
<duration>8</duration>
</backup>
<note>
<pitch>
<octave>4</octave>
<step>D</step>
</pitch>
<duration>8</duration>
<type>whole</type>
<staff>2</staff>
</note>
<note>
<chord></chord>
<pitch>
<octave>3</octave>
<step>B</step>
</pitch>
<duration>8</duration>
<type>whole</type>
<staff>2</staff>
</note>
<note>
<chord></chord>
<pitch>
<octave>3</octave>
<step>G</step>
</pitch>
<duration>8</duration>
<type>whole</type>
<staff>2</staff>
</note>
</measure>
<measure number="13">
<note>
<pitch>
<octave>5</octave>
<step>C</step>
</pitch>
<duration>2</duration>
<type>quarter</type>
<staff>1</staff>
</note>
<note>
<pitch>
<octave>5</octave>
<step>C</step>
</pitch>
<duration>2</duration>
<type>quarter</type>
<staff>1</staff>
</note>
<note>
<pitch>
<octave>5</octave>
<step>C</step>
</pitch>
<duration>2</duration>
<type>quarter</type>
<staff>1</staff>
</note>
<note>
<pitch>
<octave>5</octave>
<step>E</step>
</pitch>
<duration>2</duration>
<type>quarter</type>
<staff>1</staff>
</note>
<backup>
<duration>8</duration>
</backup>
<note>
<pitch>
<octave>4</octave>
<step>E</step>
</pitch>
<duration>8</duration>
<type>whole</type>
<staff>2</staff>
</note>
<note>
<chord></chord>
<pitch>
<octave>4</octave>
<step>C</step>
</pitch>
<duration>8</duration>
<type>whole</type>
<staff>2</staff>
</note>
<note>
<chord></chord>
<pitch>
<octave>3</octave>
<step>A</step>
</pitch>
<duration>8</duration>
<type>whole</type>
<staff>2</staff>
</note>
</measure>
<measure number="14">
<note>
<pitch>
<octave>5</octave>
<step>A</step>
</pitch>
<duration>2</duration>
<type>quarter</type>
<staff>1</staff>
</note>
<note>
<pitch>
<octave>5</octave>
<step>A</step>
</pitch>
<duration>2</duration>
<type>quarter</type>
<staff>1</staff>
</note>
<note>
<pitch>
<octave>5</octave>
<step>A</step>
</pitch>
<duration>2</duration>
<type>quarter</type>
<staff>1</staff>
</note>
<note>
<pitch>
<octave>5</octave>
<step>G</step>
</pitch>
<duration>2</duration>
<type>quarter</type>
<staff>1</staff>
</note>
<backup>
<duration>8</duration>
</backup>
<note>
<pitch>
<octave>4</octave>
<step>C</step>
</pitch>
<duration>8</duration>
<type>whole</type>
<staff>2</staff>
</note>
<note>
<chord></chord>
<pitch>
<octave>3</octave>
<step>A</step>
</pitch>
<duration>8</duration>
<type>whole</type>
<staff>2</staff>
</note>
<note>
<chord></chord>
<pitch>
<octave>3</octave>
<step>F</step>
</pitch>
<duration>8</duration>
<type>whole</type>
<staff>2</staff>
</note>
</measure>
<measure number="15">
<note>
<pitch>
<octave>5</octave>
<step>E</step>
</pitch>
<duration>2</duration>
<type>quarter</type>
<staff>1</staff>
</note>
<note>
<pitch>
<octave>5</octave>
<step>E</step>
</pitch>
<duration>2</duration>
<type>quarter</type>
<staff>1</staff>
</note>
<note>
<pitch>
<octave>5</octave>
<step>E</step>
</pitch>
<duration>2</duration>
<type>quarter</type>
<staff>1</staff>
</note>
<note>
<pitch>
<octave>5</octave>
<step>E</step>
</pitch>
<duration>2</duration>
<type>quarter</type>
<staff>1</staff>
</note>
<backup>
<duration>8</duration>
</backup>
<note>
<pitch>
<octave>3</octave>
<step>G</step>
</pitch>
<duration>8</duration>
<type>whole</type>
<staff>2</staff>
</note>
<note>
<chord></chord>
<pitch>
<octave>3</octave>
<step>E</step>
</pitch>
<duration>8</duration>
<type>whole</type>
<staff>2</staff>
</note>
<note>
<chord></chord>
<pitch>
<octave>3</octave>
<step>C</step>
</pitch>
<duration>8</duration>
<type>whole</type>
<staff>2</staff>
</note>
</measure>
<measure number="16">
<note>
<pitch>
<octave>4</octave>
<step>B</step>
</pitch>
<duration>2</duration>
<type>quarter</type>
<staff>1</staff>
</note>
<note>
<pitch>
<octave>4</octave>
<step>B</step>
</pitch>
<duration>2</duration>
<type>quarter</type>
<staff>1</staff>
</note>
<note>
<pitch>
<octave>4</octave>
<step>B</step>
</pitch>
<duration>2</duration>
<type>quarter</type>
<staff>1</staff>
</note>
<note>
<pitch>
<octave>4</octave>
<step>A</step>
</pitch>
<duration>2</duration>
<type>quarter</type>
<staff>1</staff>
</note>
<backup>
<duration>8</duration>
</backup>
<note>
<pitch>
<octave>4</octave>
<step>D</step>
</pitch>
<duration>8</duration>
<type>whole</type>
<staff>2</staff>
</note>
<note>
<chord></chord>
<pitch>
<octave>3</octave>
<step>B</step>
</pitch>
<duration>8</duration>
<type>whole</type>
<staff>2</staff>
</note>
<note>
<chord></chord>
<pitch>
<octave>3</octave>
<step>G</step>
</pitch>
<duration>8</duration>
<type>whole</type>
<staff>2</staff>
</note>
</measure>
<measure number="17">
<note>
<pitch>
<octave>5</octave>
<step>E</step>
</pitch>
<duration>4</duration>
<type>half</type>
<staff>1</staff>
</note>
<note>
<pitch>
<octave>5</octave>
<step>D</step>
</pitch>
<duration>2</duration>
<type>quarter</type>
<staff>1</staff>
</note>
<note>
<pitch>
<octave>5</octave>
<step>D</step>
</pitch>
<duration>1</duration>
<type>eighth</type>
<staff>1</staff>
</note>
<note>
<pitch>
<octave>5</octave>
<step>E</step>
</pitch>
<duration>1</duration>
<type>eighth</type>
<staff>1</staff>
</note>
<backup>
<duration>8</duration>
</backup>
<note>
<pitch>
<octave>4</octave>
<step>E</step>
</pitch>
<duration>8</duration>
<type>whole</type>
<staff>2</staff>
</note>
<note>
<chord></chord>
<pitch>
<octave>4</octave>
<step>C</step>
</pitch>
<duration>8</duration>
<type>whole</type>
<staff>2</staff>
</note>
<note>
<chord></chord>
<pitch>
<octave>3</octave>
<step>A</step>
</pitch>
<duration>8</duration>
<type>whole</type>
<staff>2</staff>
</note>
</measure>
<measure number="18">
<note>
<pitch>
<octave>5</octave>
<step>D</step>
</pitch>
<duration>1</duration>
<type>eighth</type>
<staff>1</staff>
</note>
<note>
<pitch>
<octave>5</octave>
<step>C</step>
</pitch>
<duration>1</duration>
<type>eighth</type>
<staff>1</staff>
</note>
<note>
<pitch>
<octave>5</octave>
<step>C</step>
</pitch>
<duration>2</duration>
<type>quarter</type>
<staff>1</staff>
</note>
<note>
<rest></rest>
<duration>2</duration>
<type>eighth</type>
<staff>1</staff>
</note>
<note>
<pitch>
<octave>5</octave>
<step>E</step>
</pitch>
<duration>1</duration>
<type>eighth</type>
<staff>1</staff>
</note>
<note>
<pitch>
<octave>5</octave>
<step>E</step>
</pitch>
<duration>1</duration>
<type>eighth</type>
<staff>1</staff>
</note>
<backup>
<duration>8</duration>
</backup>
<note>
<pitch>
<octave>4</octave>
<step>C</step>
</pitch>
<duration>8</duration>
<type>whole</type>
<staff>2</staff>
</note>
<note>
<chord></chord>
<pitch>
<octave>3</octave>
<step>A</step>
</pitch>
<duration>8</duration>
<type>whole</type>
<staff>2</staff>
</note>
<note>
<chord></chord>
<pitch>
<octave>3</octave>
<step>F</step>
</pitch>
<duration>8</duration>
<type>whole</type>
<staff>2</staff>
</note>
</measure>
<measure number="19">
<note>
<pitch>
<octave>5</octave>
<step>E</step>
</pitch>
<duration>4</duration>
<type>half</type>
<staff>1</staff>
</note>
<note>
<rest></rest>
<duration>2</duration>
<type>eighth</type>
<staff>1</staff>
</note>
<note>
<pitch>
<octave>5</octave>
<step>C</step>
</pitch>
<duration>1</duration>
<type>eighth</type>
<staff>1</staff>
</note>
<note>
<pitch>
<octave>5</octave>
<step>D</step>
</pitch>
<duration>1</duration>
<type>eighth</type>
<staff>1</staff>
</note>
<backup>
<duration>8</duration>
</backup>
<note>
<pitch>
<octave>3</octave>
<step>G</step>
</pitch>
<duration>8</duration>
<type>whole</type>
<staff>2</staff>
</note>
<note>
<chord></chord>
<pitch>
<octave>3</octave>
<step>E</step>
</pitch>
<duration>8</duration>
<type>whole</type>
<staff>2</staff>
</note>
<note>
<chord></chord>
<pitch>
<octave>3</octave>
<step>C</step>
</pitch>
<duration>8</duration>
<type>whole</type>
<staff>2</staff>
</note>
</measure>
<measure number="20">
<note>
<pitch>
<octave>4</octave>
<step>B</step>
</pitch>
<duration>1</duration>
<type>eighth</type>
<staff>1</staff>
</note>
<note>
<pitch>
<octave>4</octave>
<step>B</step>
</pitch>
<duration>1</duration>
<type>eighth</type>
<staff>1</staff>
</note>
<note>
<pitch>
<octave>4</octave>
<step>B</step>
</pitch>
<duration>1</duration>
<type>eighth</type>
<staff>1</staff>
</note>
<note>
<pitch>
<octave>5</octave>
<step>C</step>
</pitch>
<duration>4</duration>
<type>half</type>
<staff>1</staff>
</note>
<note>
<pitch>
<octave>5</octave>
<step>E</step>
</pitch>
<duration>1</duration>
<type>eighth</type>
<staff>1</staff>
</note>
<backup>
<duration>8</duration>
</backup>
<note>
<pitch>
<octave>4</octave>
<step>D</step>
</pitch>
<duration>8</duration>
<type>whole</type>
<staff>2</staff>
</note>
<note>
<chord></chord>
<pitch>
<octave>3</octave>
<step>B</step>
</pitch>
<duration>8</duration>
<type>whole</type>
<staff>2</staff>
</note>
<note>
<chord></chord>
<pitch>
<octave>3</octave>
<step>G</step>
</pitch>
<duration>8</duration>
<type>whole</type>
<staff>2</staff>
</note>
</measure>
<measure number="21">
<note>
<rest></rest>
<duration>4</duration>
<type>eighth</type>
<staff>1</staff>
</note>
<note>
<pitch>
<octave>5</octave>
<step>C</step>
</pitch>
<duration>1</duration>
<type>eighth</type>
<staff>1</staff>
</note>
<note>
<pitch>
<octave>5</octave>
<step>C</step>
</pitch>
<duration>1</duration>
<type>eighth</type>
<staff>1</staff>
</note>
<note>
<pitch>
<octave>5</octave>
<step>C</step>
</pitch>
<duration>1</duration>
<type>eighth</type>
<staff>1</staff>
</note>
<note>
<pitch>
<octave>5</octave>
<step>C</step>
</pitch>
<duration>1</duration>
<type>eighth</type>
<staff>1</staff>
</note>
<backup>
<duration>8</duration>
</backup>
<note>
<pitch>
<octave>4</octave>
<step>E</step>
</pitch>
<duration>8</duration>
<type>whole</type>
<staff>2</staff>
</note>
<note>
<chord></chord>
<pitch>
<octave>4</octave>
<step>C</step>
</pitch>
<duration>8</duration>
<type>whole</type>
<staff>2</staff>
</note>
<note>
<chord></chord>
<pitch>
<octave>3</octave>
<step>A</step>
</pitch>
<duration>8</duration>
<type>whole</type>
<staff>2</staff>
</note>
</measure>
<measure number="22">
<note>
<pitch>
<octave>4</octave>
<step>A</step>
</pitch>
<duration>1</duration>
<type>eighth</type>
<staff>1</staff>
</note>
<note>
<pitch>
<octave>4</octave>
<step>G</step>
</pitch>
<duration>1</duration>
<type>eighth</type>
<staff>1</staff>
</note>
<note>
<rest></rest>
<duration>3</duration>
<type>eighth</type>
<staff>1</staff>
</note>
<note>
<pitch>
<octave>5</octave>
<step>C</step>
</pitch>
<duration>1</duration>
<type>eighth</type>
<staff>1</staff>
</note>
<note>
<pitch>
<octave>5</octave>
<step>G</step>
</pitch>
<duration>1</duration>
<type>eighth</type>
<staff>1</staff>
</note>
<note>
<pitch>
<octave>5</octave>
<step>E</step>
</pitch>
<duration>1</duration>
<type>eighth</type>
<staff>1</staff>
</note>
<backup>
<duration>8</duration>
</backup>
<note>
<pitch>
<octave>4</octave>
<step>C</step>
</pitch>
<duration>8</duration>
<type>whole</type>
<staff>2</staff>
</note>
<note>
<chord></chord>
<pitch>
<octave>3</octave>
<step>A</step>
</pitch>
<duration>8</duration>
<type>whole</type>
<staff>2</staff>
</note>
<note>
<chord></chord>
<pitch>
<octave>3</octave>
<step>F</step>
</pitch>
<duration>8</duration>
<type>whole</type>
<staff>2</staff>
</note>
</measure>
<measure number="23">
<note>
<rest></rest>
<duration>5</duration>
<type>eighth</type>
<staff>1</staff>
</note>
<note>
<pitch>
<octave>5</octave>
<step>C</step>
</pitch>
<duration>1</duration>
<type>eighth</type>
<staff>1</staff>
</note>
<note>
<pitch>
<octave>5</octave>
<step>G</step>
</pitch>
<duration>1</duration>
<type>eighth</type>
<staff>1</staff>
</note>
<note>
<pitch>
<octave>5</octave>
<step>E</step>
</pitch>
<duration>1</duration>
<type>eighth</type>
<staff>1</staff>
</note>
<backup>
<duration>8</duration>
</backup>
<note>
<pitch>
<octave>3</octave>
<step>G</step>
</pitch>
<duration>8</duration>
<type>whole</type>
<staff>2</staff>
</note>
<note>
<chord></chord>
<pitch>
<octave>3</octave>
<step>E</step>
</pitch>
<duration>8</duration>
<type>whole</type>
<staff>2</staff>
</note>
<note>
<chord></chord>
<pitch>
<octave>3</octave>
<step>C</step>
</pitch>
<duration>8</duration>
<type>whole</type>
<staff>2</staff>
</note>
</measure>
<measure number="24">
<note>
<rest></rest>
<duration>4</duration>
<type>eighth</type>
<staff>1</staff>
</note>
<note>
<pitch>
<octave>5</octave>
<step>E</step>
</pitch>
<duration>1</duration>
<type>eighth</type>
<staff>1</staff>
</note>
<note>
<pitch>
<octave>5</octave>
<step>E</step>
</pitch>
<duration>1</duration>
<type>eighth</type>
<staff>1</staff>
</note>
<note>
<pitch>
<octave>5</octave>
<step>E</step>
</pitch>
<duration>1</duration>
<type>eighth</type>
<staff>1</staff>
</note>
<note>
<pitch>
<octave>5</octave>
<step>E</step>
</pitch>
<duration>1</duration>
<type>eighth</type>
<staff>1</staff>
</note>
<backup>
<duration>8</duration>
</backup>
<note>
<pitch>
<octave>4</octave>
<step>D</step>
</pitch>
<duration>8</duration>
<type>whole</type>
<staff>2</staff>
</note>
<note>
<chord></chord>
<pitch>
<octave>3</octave>
<step>B</step>
</pitch>
<duration>8</duration>
<type>whole</type>
<staff>2</staff>
</note>
<note>
<chord></chord>
<pitch>
<octave>3</octave>
<step>G</step>
</pitch>
<duration>8</duration>
<type>whole</type>
<staff>2</staff>
</note>
</measure>
<measure number="25">
<note>
<pitch>
<octave>5</octave>
<step>E</step>
</pitch>
<duration>4</duration>
<type>half</type>
<staff>1</staff>
</note>
<note>
<rest></rest>
<duration>1</duration>
<type>eighth</type>
<staff>1</staff>
</note>
<note>
<pitch>
<octave>5</octave>
<step>C</step>
</pitch>
<duration>1</duration>
<type>eighth</type>
<staff>1</staff>
</note>
<note>
<pitch>
<octave>5</octave>
<step>C</step>
</pitch>
<duration>1</duration>
<type>eighth</type>
<staff>1</staff>
</note>
<note>
<pitch>
<octave>5</octave>
<step>F</step>
</pitch>
<duration>1</duration>
<type>eighth</type>
<staff>1</staff>
</note>
<backup>
<duration>8</duration>
</backup>
<note>
<pitch>
<octave>4</octave>
<step>E</step>
</pitch>
<duration>8</duration>
<type>whole</type>
<staff>2</staff>
</note>
<note>
<chord></chord>
<pitch>
<octave>4</octave>
<step>C</step>
</pitch>
<duration>8</duration>
<type>whole</type>
<staff>2</staff>
</note>
<note>
<chord></chord>
<pitch>
<octave>3</octave>
<step>A</step>
</pitch>
<duration>8</duration>
<type>whole</type>
<staff>2</staff>
</note>
</measure>
<measure number="26">
<note>
<rest></rest>
<duration>7</duration>
<type>eighth</type>
<staff>1</staff>
</note>
<note>
<pitch>
<octave>5</octave>
<step>E</step>
</pitch>
<duration>1</duration>
<type>eighth</type>
<staff>1</staff>
</note>
<backup>
<duration>8</duration>
</backup>
<note>
<pitch>
<octave>4</octave>
<step>C</step>
</pitch>
<duration>8</duration>
<type>whole</type>
<staff>2</staff>
</note>
<note>
<chord></chord>
<pitch>
<octave>3</octave>
<step>A</step>
</pitch>
<duration>8</duration>
<type>whole</type>
<staff>2</staff>
</note>
<note>
<chord></chord>
<pitch>
<octave>3</octave>
<step>F</step>
</pitch>
<duration>8</duration>
<type>whole</type>
<staff>2</staff>
</note>
</measure>
<measure number="27">
<note>
<pitch>
<octave>5</octave>
<step>E</step>
</pitch>
<duration>1</duration>
<type>eighth</type>
<staff>1</staff>
</note>
<note>
<pitch>
<octave>5</octave>
<step>G</step>
</pitch>
<duration>1</duration>
<type>eighth</type>
<staff>1</staff>
</note>
<note>
<pitch>
<octave>5</octave>
<step>E</step>
</pitch>
<duration>1</duration>
<type>eighth</type>
<staff>1</staff>
</note>
<note>
<pitch>
<octave>5</octave>
<step>G</step>
</pitch>
<duration>1</duration>
<type>eighth</type>
<staff>1</staff>
</note>
<note>
<pitch>
<octave>5</octave>
<step>E</step>
</pitch>
<duration>1</duration>
<type>eighth</type>
<staff>1</staff>
</note>
<note>
<pitch>
<octave>5</octave>
<step>G</step>
</pitch>
<duration>1</duration>
<type>eighth</type>
<staff>1</staff>
</note>
<note>
<pitch>
<octave>5</octave>
<step>E</step>
</pitch>
<duration>1</duration>
<type>eighth</type>
<staff>1</staff>
</note>
<note>
<pitch>
<octave>5</octave>
<step>F</step>
</pitch>
<duration>1</duration>
<type>eighth</type>
<staff>1</staff>
</note>
<backup>
<duration>8</duration>
</backup>
<note>
<pitch>
<octave>3</octave>
<step>G</step>
</pitch>
<duration>8</duration>
<type>whole</type>
<staff>2</staff>
</note>
<note>
<chord></chord>
<pitch>
<octave>3</octave>
<step>E</step>
</pitch>
<duration>8</duration>
<type>whole</type>
<staff>2</staff>
</note>
<note>
<chord></chord>
<pitch>
<octave>3</octave>
<step>C</step>
</pitch>
<duration>8</duration>
<type>whole</type>
<staff>2</staff>
</note>
</measure>
<measure number="28">
<note>
<rest></rest>
<duration>3</duration>
<type>eighth</type>
<staff>1</staff>
</note>
<note>
<pitch>
<octave>4</octave>
<step>A</step>
</pitch>
<duration>1</duration>
<type>eighth</type>
<staff>1</staff>
</note>
<note>
<pitch>
<octave>5</octave>
<step>F</step>
</pitch>
<duration>1</duration>
<type>eighth</type>
<staff>1</staff>
</note>
<note>
<pitch>
<octave>5</octave>
<step>E</step>
</pitch>
<duration>1</duration>
<type>eighth</type>
<staff>1</staff>
</note>
<note>
<pitch>
<octave>5</octave>
<step>E</step>
</pitch>
<duration>1</duration>
<type>eighth</type>
<staff>1</staff>
</note>
<note>
<pitch>
<octave>5</octave>
<step>D</step>
</pitch>
<duration>1</duration>
<type>eighth</type>
<staff>1</staff>
</note>
<backup>
<duration>8</duration>
</backup>
<note>
<pitch>
<octave>4</octave>
<step>D</step>
</pitch>
<duration>8</duration>
<type>whole</type>
<staff>2</staff>
</note>
<note>
<chord></chord>
<pitch>
<octave>3</octave>
<step>B</step>
</pitch>
<duration>8</duration>
<type>whole</type>
<staff>2</staff>
</note>
<note>
<chord></chord>
<pitch>
<octave>3</octave>
<step>G</step>
</pitch>
<duration>8</duration>
<type>whole</type>
<staff>2</staff>
</note>
</measure>
<measure number="29">
<note>
<pitch>
<octave>5</octave>
<step>C</step>
</pitch>
<duration>2</duration>
<type>quarter</type>
<staff>1</staff>
</note>
<note>
<pitch>
<octave>5</octave>
<step>C</step>
</pitch>
<duration>2</duration>
<type>quarter</type>
<staff>1</staff>
</note>
<note>
<pitch>
<octave>5</octave>
<step>C</step>
</pitch>
<duration>1</duration>
<type>eighth</type>
<staff>1</staff>
</note>
<note>
<pitch>
<octave>5</octave>
<step>E</step>
</pitch>
<duration>1</duration>
<type>eighth</type>
<staff>1</staff>
</note>
<note>
<pitch>
<octave>6</octave>
<step>C</step>
</pitch>
<duration>1</duration>
<type>eighth</type>
<staff>1</staff>
</note>
<note>
<pitch>
<octave>5</octave>
<step>B</step>
</pitch>
<duration>1</duration>
<type>eighth</type>
<staff>1</staff>
</note>
<backup>
<duration>8</duration>
</backup>
<note>
<pitch>
<octave>4</octave>
<step>E</step>
</pitch>
<duration>8</duration>
<type>whole</type>
<staff>2</staff>
</note>
<note>
<chord></chord>
<pitch>
<octave>4</octave>
<step>C</step>
</pitch>
<duration>8</duration>
<type>whole</type>
<staff>2</staff>
</note>
<note>
<chord></chord>
<pitch>
<octave>3</octave>
<step>A</step>
</pitch>
<duration>8</duration>
<type>whole</type>
<staff>2</staff>
</note>
</measure>
<measure number="30">
<note>
<pitch>
<octave>5</octave>
<step>A</step>
</pitch>
<duration>2</duration>
<type>quarter</type>
<staff>1</staff>
</note>
<note>
<pitch>
<octave>5</octave>
<step>A</step>
</pitch>
<duration>2</duration>
<type>quarter</type>
<staff>1</staff>
</note>
<note>
<pitch>
<octave>5</octave>
<step>A</step>
</pitch>
<duration>2</duration>
<type>quarter</type>
<staff>1</staff>
</note>
<note>
<pitch>
<octave>5</octave>
<step>G</step>
</pitch>
<duration>2</duration>
<type>quarter</type>
<staff>1</staff>
</note>
<backup>
<duration>8</duration>
</backup>
<note>
<pitch>
<octave>4</octave>
<step>C</step>
</pitch>
<duration>8</duration>
<type>whole</type>
<staff>2</staff>
</note>
<note>
<chord></chord>
<pitch>
<octave>3</octave>
<step>A</step>
</pitch>
<duration>8</duration>
<type>whole</type>
<staff>2</staff>
</note>
<note>
<chord></chord>
<pitch>
<octave>3</octave>
<step>F</step>
</pitch>
<duration>8</duration>
<type>whole</type>
<staff>2</staff>
</note>
</measure>
<measure number="31">
<note>
<pitch>
<octave>5</octave>
<step>E</step>
</pitch>
<duration>2</duration>
<type>quarter</type>
<staff>1</staff>
</note>
<note>
<pitch>
<octave>5</octave>
<step>E</step>
</pitch>
<duration>2</duration>
<type>quarter</type>
<staff>1</staff>
</note>
<note>
<pitch>
<octave>5</octave>
<step>G</step>
</pitch>
<duration>1</duration>
<type>eighth</type>
<staff>1</staff>
</note>
<note>
<pitch>
<octave>5</octave>
<step>F</step>
</pitch>
<duration>1</duration>
<type>eighth</type>
<staff>1</staff>
</note>
<note>
<pitch>
<octave>5</octave>
<step>E</step>
</pitch>
<duration>1</duration>
<type>eighth</type>
<staff>1</staff>
</note>
<note>
<pitch>
<octave>5</octave>
<step>C</step>
</pitch>
<duration>1</duration>
<type>eighth</type>
<staff>1</staff>
</note>
<backup>
<duration>8</duration>
</backup>
<note>
<pitch>
<octave>3</octave>
<step>G</step>
</pitch>
<duration>8</duration>
<type>whole</type>
<staff>2</staff>
</note>
<note>
<chord></chord>
<pitch>
<octave>3</octave>
<step>E</step>
</pitch>
<duration>8</duration>
<type>whole</type>
<staff>2</staff>
</note>
<note>
<chord></chord>
<pitch>
<octave>3</octave>
<step>C</step>
</pitch>
<duration>8</duration>
<type>whole</type>
<staff>2</staff>
</note>
</measure>
<measure number="32">
<note>
<pitch>
<octave>4</octave>
<step>B</step>
</pitch>
<duration>2</duration>
<type>quarter</type>
<staff>1</staff>
</note>
<note>
<rest></rest>
<duration>1</duration>
<type>eighth</type>
<staff>1</staff>
</note>
<note>
<pitch>
<octave>4</octave>
<step>A</step>
</pitch>
<duration>1</duration>
<type>eighth</type>
<staff>1</staff>
</note>
<note>
<pitch>
<octave>5</octave>
<step>F</step>
</pitch>
<duration>1</duration>
<type>eighth</type>
<staff>1</staff>
</note>
<note>
<pitch>
<octave>5</octave>
<step>E</step>
</pitch>
<duration>1</duration>
<type>eighth</type>
<staff>1</staff>
</note>
<note>
<pitch>
<octave>5</octave>
<step>E</step>
</pitch>
<duration>1</duration>
<type>eighth</type>
<staff>1</staff>
</note>
<note>
<pitch>
<octave>5</octave>
<step>D</step>
</pitch>
<duration>1</duration>
<type>eighth</type>
<staff>1</staff>
</note>
<backup>
<duration>8</duration>
</backup>
<note>
<pitch>
<octave>4</octave>
<step>D</step>
</pitch>
<duration>8</duration>
<type>whole</type>
<staff>2</staff>
</note>
<note>
<chord></chord>
<pitch>
<octave>3</octave>
<step>B</step>
</pitch>
<duration>8</duration>
<type>whole</type>
<staff>2</staff>
</note>
<note>
<chord></chord>
<pitch>
<octave>3</octave>
<step>G</step>
</pitch>
<duration>8</duration>
<type>whole</type>
<staff>2</staff>
</note>
</measure>
<measure number="33">
<note>
<pitch>
<octave>5</octave>
<step>C</step>
</pitch>
<duration>2</duration>
<type>quarter</type>
<staff>1</staff>
</note>
<note>
<pitch>
<octave>5</octave>
<step>C</step>
</pitch>
<duration>2</duration>
<type>quarter</type>
<staff>1</staff>
</note>
<note>
<pitch>
<octave>5</octave>
<step>C</step>
</pitch>
<duration>2</duration>
<type>quarter</type>
<staff>1</staff>
</note>
<note>
<pitch>
<octave>5</octave>
<step>E</step>
</pitch>
<duration>2</duration>
<type>quarter</type>
<staff>1</staff>
</note>
<backup>
<duration>8</duration>
</backup>
<note>
<pitch>
<octave>4</octave>
<step>E</step>
</pitch>
<duration>8</duration>
<type>whole</type>
<staff>2</staff>
</note>
<note>
<chord></chord>
<pitch>
<octave>4</octave>
<step>C</step>
</pitch>
<duration>8</duration>
<type>whole</type>
<staff>2</staff>
</note>
<note>
<chord></chord>
<pitch>
<octave>3</octave>
<step>A</step>
</pitch>
<duration>8</duration>
<type>whole</type>
<staff>2</staff>
</note>
</measure>
<measure number="34">
<note>
<pitch>
<octave>5</octave>
<step>A</step>
</pitch>
<duration>2</duration>
<type>quarter</type>
<staff>1</staff>
</note>
<note>
<pitch>
<octave>5</octave>
<step>A</step>
</pitch>
<duration>2</duration>
<type>quarter</type>
<staff>1</staff>
</note>
<note>
<pitch>
<octave>5</octave>
<step>A</step>
</pitch>
<duration>2</duration>
<type>quarter</type>
<staff>1</staff>
</note>
<note>
<pitch>
<octave>5</octave>
<step>G</step>
</pitch>
<duration>2</duration>
<type>quarter</type>
<staff>1</staff>
</note>
<backup>
<duration>8</duration>
</backup>
<note>
<pitch>
<octave>4</octave>
<step>C</step>
</pitch>
<duration>8</duration>
<type>whole</type>
<staff>2</staff>
</note>
<note>
<chord></chord>
<pitch>
<octave>3</octave>
<step>A</step>
</pitch>
<duration>8</duration>
<type>whole</type>
<staff>2</staff>
</note>
<note>
<chord></chord>
<pitch>
<octave>3</octave>
<step>F</step>
</pitch>
<duration>8</duration>
<type>whole</type>
<staff>2</staff>
</note>
</measure>
<measure number="35">
<note>
<pitch>
<octave>5</octave>
<step>E</step>
</pitch>
<duration>2</duration>
<type>quarter</type>
<staff>1</staff>
</note>
<note>
<pitch>
<octave>5</octave>
<step>E</step>
</pitch>
<duration>2</duration>
<type>quarter</type>
<staff>1</staff>
</note>
<note>
<pitch>
<octave>5</octave>
<step>E</step>
</pitch>
<duration>2</duration>
<type>quarter</type>
<staff>1</staff>
</note>
<note>
<pitch>
<octave>5</octave>
<step>E</step>
</pitch>
<duration>2</duration>
<type>quarter</type>
<staff>1</staff>
</note>
<backup>
<duration>8</duration>
</backup>
<note>
<pitch>
<octave>3</octave>
<step>G</step>
</pitch>
<duration>8</duration>
<type>whole</type>
<staff>2</staff>
</note>
<note>
<chord></chord>
<pitch>
<octave>3</octave>
<step>E</step>
</pitch>
<duration>8</duration>
<type>whole</type>
<staff>2</staff>
</note>
<note>
<chord></chord>
<pitch>
<octave>3</octave>
<step>C</step>
</pitch>
<duration>8</duration>
<type>whole</type>
<staff>2</staff>
</note>
</measure>
<measure number="36">
<note>
<pitch>
<octave>4</octave>
<step>B</step>
</pitch>
<duration>2</duration>
<type>quarter</type>
<staff>1</staff>
</note>
<note>
<pitch>
<octave>4</octave>
<step>B</step>
</pitch>
<duration>2</duration>
<type>quarter</type>
<staff>1</staff>
</note>
<note>
<pitch>
<octave>4</octave>
<step>B</step>
</pitch>
<duration>4</duration>
<type>half</type>
<staff>1</staff>
</note>
<backup>
<duration>8</duration>
</backup>
<note>
<pitch>
<octave>4</octave>
<step>D</step>
</pitch>
<duration>8</duration>
<type>whole</type>
<staff>2</staff>
</note>
<note>
<chord></chord>
<pitch>
<octave>3</octave>
<step>B</step>
</pitch>
<duration>8</duration>
<type>whole</type>
<staff>2</staff>
</note>
<note>
<chord></chord>
<pitch>
<octave>3</octave>
<step>G</step>
</pitch>
<duration>8</duration>
<type>whole</type>
<staff>2</staff>
</note>
</measure>
</part>
</score-partwise>

