<?xml version="1.0" encoding="utf-8"?>
<!-- Generator: Adobe Illustrator 22.0.1, SVG Export Plug-In . SVG Version: 6.00 Build 0)  -->
<svg version="1.1" id="Layer_1" xmlns="http://www.w3.org/2000/svg" xmlns:xlink="http://www.w3.org/1999/xlink" x="0px" y="0px"
	 viewBox="0 0 520 119.1" style="enable-background:new 0 0 520 119.1;" xml:space="preserve">
<style type="text/css">
	.st0{fill:#90C47A;}
	.st1{fill:#FFFFFF;}
	.st2{fill:#49A32B;}
	.st3{fill:#93C67D;}
	.st4{fill:#A7DB8D;}
</style>
<circle class="st0" cx="81" cy="48.7" r="43"/>
<g>
	<g>
		<path class="st1" d="M188.7,113.7c-1.9,0-4.3-0.4-6.2-1.1c-0.5-0.1-0.6-0.4-0.6-0.6c0-0.1,0.1-0.3,0.1-0.5l0.8-2.4
			c0.1-0.3,0.2-0.6,0.6-0.6c0.1,0,0.3,0,0.5,0.1c1.5,0.6,3.1,0.9,4.7,0.9c1.3,0,2.8-0.7,2.8-2.1c0-1.1-0.9-1.7-1.8-2.1l-4-1.8
			c-2.2-1-3.7-2.9-3.7-5.4c0-3.8,3.8-6,7.3-6c2.1,0,4,0.4,5.9,1.2c0.5,0.2,0.7,0.4,0.7,0.7c0,0.1-0.1,0.3-0.1,0.4l-0.9,2.3
			c-0.1,0.4-0.3,0.5-0.6,0.5c-0.1,0-0.3-0.1-0.5-0.1c-1.2-0.5-2.8-1-4.1-1c-1.2,0-2.5,0.4-2.5,1.8c0,1,1.2,1.6,1.9,1.9l3.4,1.6
			c2.4,1.1,3.9,2.7,3.9,5.4C196.2,111.2,192.7,113.7,188.7,113.7z"/>
		<path class="st1" d="M218.2,113.3c-0.8,0-1-0.4-1-1.2l-0.3-10.2h-0.1l-4.5,10.8c-0.2,0.6-0.6,0.7-1,0.7h-1.1
			c-0.6,0-0.9-0.1-1.2-0.7l-5.2-10.8h-0.1l-0.2,10.5c0,0.8-0.4,0.9-1,0.9h-2.4c-0.7,0-1-0.3-1-1l0.8-18.8c0-0.7,0.4-1,0.9-1h2.1
			c0.7,0,1,0.2,1.2,0.8l6.6,13.5h0.1l6-13.5c0.2-0.5,0.6-0.8,1.2-0.8h2.1c0.6,0,0.8,0.2,0.8,0.7l1,19c0,0.6-0.2,0.9-0.8,0.9H218.2z"
			/>
		<path class="st1" d="M244.1,113.3h-3.3c-0.7,0-1-0.3-1.2-0.8l-1.2-3.5h-7.4l-1.2,3.6c-0.1,0.4-0.4,0.7-0.9,0.7h-3.4
			c-0.3,0-0.5-0.2-0.5-0.5c0-0.1,0-0.2,0.1-0.4l7.1-19.1c0.2-0.4,0.4-0.7,1-0.7h3.1c0.6,0,0.9,0.3,1.1,0.7l7.2,19
			c0.1,0.2,0.1,0.3,0.1,0.4C244.8,113.1,244.5,113.3,244.1,113.3z M237.1,105.4l-1.9-5.9c-0.2-0.7-0.4-1.2-0.5-1.7h-0.1
			c-0.1,0.5-0.3,1.1-0.5,1.8l-1.9,5.8H237.1z"/>
		<path class="st1" d="M258.4,112.7l-4.1-6.4h-1.8v6.2c0,0.5-0.2,0.8-0.8,0.8h-3.1c-0.6,0-0.8-0.3-0.8-0.9V93.6c0-0.8,0.2-1,1-1h4.5
			c2.5,0,5.6,0.2,7.4,2.2c1.1,1.2,1.6,2.8,1.6,4.4c0,2.7-1.1,4.9-3.5,6.1v0.1l4.9,7c0.1,0.2,0.2,0.4,0.2,0.5c0,0.3-0.2,0.4-0.5,0.4
			h-3.5C259.2,113.3,258.8,113.2,258.4,112.7z M253.6,96.2h-1.2v6.6h1.5c2.2,0,3.5-1.2,3.5-3.4C257.5,97,255.8,96.2,253.6,96.2z"/>
		<path class="st1" d="M281.3,93.4l-0.2,2.4c-0.1,0.6-0.4,0.7-1.1,0.7h-5.2v16.1c0,0.7-0.1,0.8-0.7,0.8h-3.4c-0.6,0-0.7-0.1-0.7-0.7
			V96.5h-5.5c-0.6,0-0.8-0.3-0.8-0.9v-2.2c0-0.5,0.3-0.7,0.8-0.7h16C281.2,92.6,281.4,92.9,281.3,93.4z"/>
		<path class="st1" d="M291.1,113.3h-6c-0.7,0-0.9-0.3-0.9-1V93.5c0-0.7,0.3-0.9,1-0.9h4.8c5.3,0,7.9,1.6,7.9,5.1
			c0,2-1.2,3.8-3.2,4.3v0c2.8,0.3,4.8,2.2,4.8,5.2C299.5,112.1,295.4,113.3,291.1,113.3z M290.3,96.2h-1.5v4.7h1.1
			c2.2,0,3.3-0.6,3.3-2.5C293.3,96.9,292.2,96.2,290.3,96.2z M293.3,104.5c-0.9-0.4-1.7-0.4-2.9-0.4c-0.4,0-1,0-1.5,0v5.6h1.8
			c0.9,0,1.8-0.1,2.4-0.3c0.9-0.4,1.6-1.2,1.6-2.4C294.7,105.7,294.1,104.9,293.3,104.5z"/>
		<path class="st1" d="M314.6,92.6c0.6,0,0.8,0.3,0.7,0.7l-0.3,2.4c-0.1,0.6-0.4,0.7-1.2,0.7h-7.2v4.4h6.8c0.7,0,0.9,0.3,0.9,0.8
			v2.2c0,0.6-0.3,0.9-0.9,0.9h-6.8v4.7h7.8c0.5,0,0.9,0.2,0.9,0.8v2.2c0,0.6-0.3,0.8-0.8,0.8H303c-0.7,0-1-0.2-1-0.9V93.4
			c0-0.5,0.3-0.8,0.8-0.8H314.6z"/>
		<path class="st1" d="M336.7,113.3h-3.3c-0.7,0-1-0.3-1.2-0.8L331,109h-7.4l-1.2,3.6c-0.1,0.4-0.4,0.7-0.9,0.7h-3.4
			c-0.3,0-0.5-0.2-0.5-0.5c0-0.1,0-0.2,0.1-0.4l7.1-19.1c0.2-0.4,0.4-0.7,1-0.7h3.1c0.6,0,0.9,0.3,1.1,0.7l7.2,19
			c0.1,0.2,0.1,0.3,0.1,0.4C337.3,113.1,337.1,113.3,336.7,113.3z M329.7,105.4l-1.9-5.9c-0.2-0.7-0.4-1.2-0.5-1.7h-0.1
			c-0.1,0.5-0.3,1.1-0.5,1.8l-1.9,5.8H329.7z"/>
		<path class="st1" d="M350.5,112.7l-4.1-6.4h-1.8v6.2c0,0.5-0.2,0.8-0.8,0.8h-3.1c-0.6,0-0.8-0.3-0.8-0.9V93.6c0-0.8,0.2-1,1-1h4.5
			c2.5,0,5.6,0.2,7.4,2.2c1.1,1.2,1.6,2.8,1.6,4.4c0,2.7-1.1,4.9-3.5,6.1v0.1l4.9,7c0.1,0.2,0.2,0.4,0.2,0.5c0,0.3-0.2,0.4-0.5,0.4
			h-3.5C351.3,113.3,350.9,113.2,350.5,112.7z M345.7,96.2h-1.2v6.6h1.5c2.2,0,3.5-1.2,3.5-3.4C349.5,97,347.9,96.2,345.7,96.2z"/>
	</g>
</g>
<g>
	<path class="st1" d="M181.5,57.9c1.8,2.6,4.6,4.2,7.4,4.2c2.9,0,4.8-1.4,4.8-3.9c0-1.8-1.5-2.7-3.9-4.2l-3.2-2c-3-1.9-5-4.3-5-8.4
		c0-5.7,5.2-10.4,11.8-10.4c4,0,7.6,2,10.2,5.1l-4.5,4.2c-1.7-1.8-3.5-3.1-6-3.1c-2.7,0-4.3,1.6-4.3,3.6c0,1.7,1.6,2.5,4.2,4.2
		l3.3,2c3.2,2,4.7,4.1,4.7,8c0,6.1-5,10.9-12.6,10.9c-4.4,0-8.7-1.8-12-6.3L181.5,57.9z"/>
	<path class="st1" d="M209.8,34h7.2l-1.1,16.1c-0.3,3.5-0.6,7.2-1,10.7h0.2c1.4-3.5,3-7.2,4.4-10.7l6.9-16.1h6l0.1,16.1
		c-0.1,3.4-0.2,7.1-0.4,10.7h0.2c1.2-3.6,2.6-7.2,3.7-10.7l5.6-16.1h6.7l-13,33.5h-8.9l0.2-16c0-2.2,0.2-5.2,0.5-7.8h-0.2
		c-0.9,2.5-2.1,5.2-3,7.8l-6.6,16h-8.7L209.8,34z"/>
	<path class="st1" d="M263.9,59.1h-10l-4,8.4h-7.8L259.9,34h8.4l3.3,33.5h-7.3L263.9,59.1z M263.6,53.8l-0.2-4.4
		c-0.2-3.3-0.3-6.4-0.4-10h-0.2c-1.4,3.4-2.7,6.6-4.3,10l-2.1,4.4H263.6z"/>
	<path class="st1" d="M294.8,33.4c4.3,0,7.4,2,9.3,5.3l-4.8,3.7c-1.3-2-2.8-2.9-4.9-2.9c-6.2,0-10.7,6.7-10.7,14.1
		c0,5.1,2,8.5,7.2,8.5c1.4,0,2.7-0.5,3.6-1.1l1.4-6.6h-5.5l1.1-5.8h11.7l-3.1,16c-2.6,2-6.3,3.5-10.5,3.5c-8.3,0-13.3-5.2-13.3-14
		C276.5,42.6,284.3,33.4,294.8,33.4z"/>
	<path class="st1" d="M327.5,33.4c4.3,0,7.4,2,9.3,5.3l-4.8,3.7c-1.3-2-2.8-2.9-4.9-2.9c-6.2,0-10.7,6.7-10.7,14.1
		c0,5.1,2,8.5,7.2,8.5c1.4,0,2.7-0.5,3.6-1.1l1.4-6.6h-5.5l1.1-5.8H336l-3.1,16c-2.6,2-6.3,3.5-10.5,3.5c-8.3,0-13.3-5.2-13.3-14
		C309.2,42.6,317,33.4,327.5,33.4z"/>
	<path class="st1" d="M347.1,34H367l-1.1,5.9h-12.9l-1.4,7.3h10.9l-1.1,5.9h-10.9l-1.7,8.5h13.3l-1.1,5.9h-20.4L347.1,34z"/>
	<path class="st1" d="M386,34c6.6,0,11.5,2.4,11.5,8.6c0,6.3-3.6,10-8.5,11.7l5.2,13.3h-7.4l-4.3-12.3h-4.1l-2.4,12.3h-7.1l6.7-33.5
		H386z M382.9,49.6c5,0,7.6-2.4,7.6-6c0-2.8-2-4-5.6-4h-3.5l-2,10H382.9z"/>
	<path class="st2" d="M412.3,20h9.3L419,32.4l-1.5,5.4h0.3c3-2.6,6.6-4.7,10.6-4.7c5.6,0,8,3.1,8,8.6c0,1.6-0.1,3.1-0.5,4.8l-4.2,21
		h-9.3l4-19.9c0.3-1.4,0.5-2.3,0.5-3.2c0-2.3-1.2-3.5-3.5-3.5c-2.1,0-4.1,1.4-7.1,4.3L412,67.5h-9.3L412.3,20z"/>
	<path class="st2" d="M469.8,67.5h-7.5l0.1-4.5h-0.3c-3.1,2.8-6.9,5.4-11,5.4c-5.6,0-7.9-3.1-7.9-8.7c0-1.5,0.2-3.1,0.5-4.7l4.2-21
		h9.2l-3.9,19.9c-0.3,1.4-0.5,2.3-0.5,3.2c0,2.3,1.2,3.5,3.4,3.5c2,0,4.1-1.4,6.7-4.3l4.3-22.2h9.3L469.8,67.5z"/>
	<path class="st2" d="M480.1,67.5l9.6-47.6h9.3l-2.2,10.8l-1.7,6.3h0.1c3-2.4,6.4-4,9.8-4c6,0,9.5,4.4,9.5,12.3
		c0,12.8-8.7,22.9-17.9,22.9c-3.1,0-5.8-1.7-7.1-4.4h-0.1l-1.5,3.6H480.1z M494,44.9l-2.6,12.7c1,2.2,2.7,3.2,4.4,3.2
		c4.7,0,9-6.1,9-14.2c0-4.1-1.6-5.9-3.9-5.9C498.9,40.7,496,41.7,494,44.9z"/>
</g>
<path class="st1" d="M10.4,43.3c0.4-1.4,0.6-2.9,0.7-4.3c0.2-2.7,0.1-5.4,0.3-8c0.4-6.4,5-8.6,11.7-7.5v1.4V29c-1,0-1.9,0-2.7,0
	c-1.4,0-2.5,0.6-2.7,2.1c-0.1,1.5-0.1,2.9-0.3,4.4c-0.3,2.9-0.4,5.8-1,8.7c-0.4,2.4-2.1,4.1-4.1,5.6c3.5,2.4,4.6,5.8,4.8,9.6
	c0.1,2.6,0.2,5.3,0.3,7.9c0.1,2.4,1,3.2,3.4,3.2c0.7,0,1.3,0.1,2.1,0.1v5.7c-1.4,0-2.7,0.1-4,0c-4-0.2-6.5-2.2-7.3-6.1
	c-0.4-2.1-0.4-4.3-0.6-6.5c-0.1-2-0.1-4-0.3-6c-0.3-3.1-1.7-4.4-4.8-4.6c-0.3,0-0.5-0.1-0.9-0.2v-6.3c0.5-0.1,0.9-0.1,1.3-0.1
	C8.6,46.3,9.8,45.5,10.4,43.3z"/>
<path class="st1" d="M151.6,43.4c-0.4-1.4-0.6-2.9-0.7-4.3c-0.2-2.7-0.1-5.4-0.3-8c-0.4-6.4-5-8.6-11.7-7.5V25v4.1c1,0,1.9,0,2.7,0
	c1.4,0,2.5,0.6,2.7,2.1c0.1,1.5,0.1,2.9,0.3,4.4c0.3,2.9,0.4,5.8,1,8.7c0.4,2.4,2.1,4.1,4.1,5.6c-3.5,2.4-4.6,5.8-4.8,9.6
	c-0.1,2.6-0.2,5.3-0.3,7.9c-0.1,2.4-1,3.2-3.4,3.2c-0.7,0-1.3,0.1-2.1,0.1v5.7c1.4,0,2.7,0.1,4,0c4-0.2,6.5-2.2,7.3-6.1
	c0.4-2.1,0.4-4.3,0.6-6.5c0.1-2,0.1-4,0.3-6c0.3-3.1,1.7-4.4,4.8-4.6c0.3,0,0.5-0.1,0.9-0.2v-6.3c-0.5-0.1-0.9-0.1-1.3-0.1
	C153.4,46.4,152.2,45.6,151.6,43.4z"/>
<path class="st2" d="M104.6,64.2c-1.1,11.2-7.4,20.9-16.4,26.7c16.3-2.8,29.4-14.9,33.8-30.6c-4.4,2.6-9.6,4-15.1,4
	C106.2,64.3,105.4,64.3,104.6,64.2z"/>
<path class="st2" d="M69.2,25.1c2.9,0,5.7,0.4,8.4,1c2.1-7.9,7.3-14.5,14.2-18.5c-3.5-0.9-7.1-1.4-10.8-1.4
	c-21.2,0-38.8,15.5-42.1,35.7C45.2,31.8,56.4,25.1,69.2,25.1z"/>
<path class="st0" d="M104.6,64.2c-7.8-0.6-14.8-4.1-19.8-9.5c-1,0.7-2.3,1.2-3.6,1.2c-3.5,0-6.3-2.8-6.3-6.3c0-2.4,1.4-4.6,3.4-5.6
	c-1.1-3.1-1.7-6.5-1.7-10c0-2.7,0.4-5.3,1-7.8c-2.7-0.7-5.5-1-8.4-1c-12.8,0-24,6.7-30.3,16.8c-0.4,2.3-0.6,4.6-0.6,6.9
	c0,23.5,19.1,42.6,42.6,42.6c2.5,0,4.9-0.2,7.3-0.6C97.3,85.1,103.6,75.4,104.6,64.2z M60.6,55.9c-3.5,0-6.3-2.8-6.3-6.3
	c0-3.5,2.8-6.3,6.3-6.3s6.3,2.8,6.3,6.3C67,53.1,64.1,55.9,60.6,55.9z"/>
<path class="st3" d="M91.8,7.6c-6.9,4-12.1,10.6-14.2,18.5c9.7,2.4,17.9,8.7,22.7,17.2c0.3,0,0.6-0.1,0.9-0.1c3.5,0,6.3,2.8,6.3,6.3
	c0,2.3-1.3,4.4-3.2,5.5c0.3,1.8,0.5,3.7,0.5,5.7c0,1.2-0.1,2.3-0.2,3.4c0.8,0.1,1.5,0.1,2.3,0.1c5.5,0,10.6-1.5,15.1-4
	c1-3.6,1.6-7.5,1.6-11.4C123.6,29.1,110.1,12.4,91.8,7.6z"/>
<path class="st4" d="M78.3,44c0.9-0.5,1.9-0.7,2.9-0.7c3.5,0,6.3,2.8,6.3,6.3c0,2.1-1.1,4-2.7,5.2c5,5.4,12,8.9,19.8,9.5
	c0.1-1.1,0.2-2.3,0.2-3.4c0-1.9-0.2-3.8-0.5-5.7c-0.9,0.5-2,0.8-3.2,0.8c-3.5,0-6.3-2.8-6.3-6.3c0-3.2,2.4-5.8,5.4-6.3
	c-4.8-8.5-13-14.9-22.7-17.2c-0.7,2.5-1,5.1-1,7.8C76.6,37.5,77.2,40.8,78.3,44z"/>
<circle class="st1" cx="60.6" cy="49.6" r="6.3"/>
<path class="st1" d="M87.5,49.6c0-3.5-2.8-6.3-6.3-6.3c-1.1,0-2,0.3-2.9,0.7c-2,1.1-3.4,3.2-3.4,5.6c0,3.5,2.8,6.3,6.3,6.3
	c1.4,0,2.6-0.4,3.6-1.2C86.5,53.6,87.5,51.7,87.5,49.6z"/>
<path class="st1" d="M94.9,49.6c0,3.5,2.8,6.3,6.3,6.3c1.2,0,2.2-0.3,3.2-0.8c1.9-1.1,3.2-3.1,3.2-5.5c0-3.5-2.8-6.3-6.3-6.3
	c-0.3,0-0.6,0-0.9,0.1C97.2,43.8,94.9,46.4,94.9,49.6z"/>
</svg>
